<?xml version="1.0" encoding="UTF-8" standalone="no"?>
<!-- Created with Inkscape (http://www.inkscape.org/) -->

<svg
   width="130.71275mm"
   height="37.332638mm"
   viewBox="0 0 130.71275 37.332638"
   version="1.1"
   id="svg1"
   inkscape:version="1.4.4 (dcaf3e7d9e, 2026-05-05)"
   sodipodi:docname="full_white.svg"
   xmlns:inkscape="http://www.inkscape.org/namespaces/inkscape"
   xmlns:sodipodi="http://sodipodi.sourceforge.net/DTD/sodipodi-0.dtd"
   xmlns="http://www.w3.org/2000/svg"
   xmlns:svg="http://www.w3.org/2000/svg">
  <sodipodi:namedview
     id="namedview1"
     pagecolor="#000000"
     bordercolor="#000000"
     borderopacity="0.25"
     inkscape:showpageshadow="2"
     inkscape:pageopacity="0.0"
     inkscape:pagecheckerboard="0"
     inkscape:deskcolor="#d1d1d1"
     inkscape:document-units="mm"
     showguides="true"
     showgrid="false"
     inkscape:zoom="2.9540685"
     inkscape:cx="258.96488"
     inkscape:cy="115.43402"
     inkscape:window-width="2540"
     inkscape:window-height="1401"
     inkscape:window-x="1930"
     inkscape:window-y="29"
     inkscape:window-maximized="1"
     inkscape:current-layer="layer1">
    <sodipodi:guide
       position="-327.01895,207.53905"
       orientation="1,0"
       id="guide8"
       inkscape:locked="false" />
    <sodipodi:guide
       position="-360.158,244.4691"
       orientation="-1,0"
       id="guide11"
       inkscape:locked="false" />
    <sodipodi:guide
       position="-293.87937,252.14202"
       orientation="1,0"
       id="guide12"
       inkscape:locked="false" />
    <sodipodi:guide
       position="-316.73017,288.41991"
       orientation="0,1"
       id="guide13"
       inkscape:locked="false" />
    <sodipodi:guide
       position="-326.93639,214.28429"
       orientation="0,-1"
       id="guide15"
       inkscape:locked="false" />
    <sodipodi:guide
       position="-360.0749,278.70755"
       orientation="0,-1"
       id="guide16"
       inkscape:locked="false" />
    <inkscape:grid
       id="grid31"
       units="mm"
       originx="-110.09059"
       originy="-355.70002"
       spacingx="0.26458333"
       spacingy="0.26458334"
       empcolor="#0099e5"
       empopacity="0.30196078"
       color="#0099e5"
       opacity="0.14901961"
       empspacing="5"
       enabled="true"
       visible="false" />
    <sodipodi:guide
       position="-193.97993,131.99899"
       orientation="1,0"
       id="guide5067"
       inkscape:locked="false" />
    <sodipodi:guide
       position="-217.88258,152.78753"
       orientation="0,1"
       id="guide5069"
       inkscape:locked="false" />
    <sodipodi:guide
       position="-170.38317,148.69569"
       orientation="0,-1"
       id="guide5070"
       inkscape:locked="false" />
    <inkscape:page
       x="0"
       y="0"
       width="130.71275"
       height="37.332638"
       id="page2"
       margin="0"
       bleed="0" />
  </sodipodi:namedview>
  <defs
     id="defs1" />
  <g
     inkscape:label="Layer 1"
     inkscape:groupmode="layer"
     id="layer1"
     transform="translate(-110.09059,-355.7)">
    <path
       id="path4"
       style="baseline-shift:baseline;display:inline;overflow:visible;opacity:1;vector-effect:none;fill:#ffffff;stroke-width:0.411119;stroke-linecap:square;paint-order:fill markers stroke;enable-background:accumulate;stop-color:#000000;stop-opacity:1"
       d="m 124.54874,358.09545 v 2.1e-4 c -4.04115,0 -7.95255,0.58432 -11.96824,1.73679 -1.34079,0.3848 -2.3878,1.58662 -2.44341,3.02871 -0.0316,0.81896 -0.0453,1.8391 -0.0465,3.00237 v 5e-4 c -0.009,9.98828 6.19377,20.72279 14.10976,24.2792 l 0.33483,0.1502 0.003,-10e-4 0.0129,0.006 0.34608,-0.15487 c 7.91599,-3.55641 14.11816,-14.29113 14.10891,-24.27941 v -5e-4 c -0.002,-1.16328 -0.0143,-2.18343 -0.0458,-3.00237 -0.0556,-1.4421 -1.10261,-2.64413 -2.4434,-3.02892 -4.0157,-1.15248 -7.9271,-1.73679 -11.96826,-1.73679 z m -0.75716,0.43297 c 3.97956,-0.0683 7.96219,0.46056 11.79998,1.50607 1.13695,0.15843 2.23535,0.91814 2.57195,2.04974 0.19569,0.87944 0.11697,1.79362 0.14978,2.68878 0.1263,5.06202 -1.27786,10.10157 -3.72747,14.51236 -1.8991,3.39771 -4.41972,6.53213 -7.67779,8.71223 -0.79493,0.49707 -1.57802,1.0703 -2.51182,1.27237 -2.64605,-1.23651 -4.91923,-3.16561 -6.78677,-5.39372 -3.00075,-3.59811 -5.13021,-7.9168 -6.18489,-12.48048 -0.55171,-2.20969 -0.72043,-4.49481 -0.68643,-6.76701 0.0571,-0.85423 -0.12221,-1.73705 0.16571,-2.56408 0.29762,-1.02799 1.2477,-1.7435 2.26899,-1.95477 3.45897,-0.94756 7.02901,-1.51843 10.61876,-1.58149 z" />
    <path
       id="path5"
       style="baseline-shift:baseline;display:inline;overflow:visible;opacity:1;vector-effect:none;fill:#ffffff;stroke-width:0.411119;stroke-linecap:square;paint-order:fill markers stroke;enable-background:accumulate;stop-color:#000000;stop-opacity:1"
       d="m 124.54854,358.10925 c -4.04352,2e-5 -7.95779,0.61682 -11.97442,1.8324 -1.35185,0.40915 -2.3705,1.67538 -2.42407,3.14025 -0.0316,0.86135 -0.0446,1.93638 -0.0459,3.16213 -1e-4,0.11397 4.2e-4,0.22812 0.002,0.34226 -0.001,0.27042 -0.001,0.52331 -0.002,0.7455 -0.009,10.48917 6.16598,21.78804 14.08576,25.54009 l 0.33631,0.15976 0.0202,-0.009 0.0217,0.01 0.3395,-0.1604 c 7.91978,-3.75205 14.09497,-15.05092 14.08576,-25.5401 -2.2e-4,-0.2225 -5e-4,-0.4759 -0.002,-0.74676 0.002,-0.11377 0.002,-0.22741 0.002,-0.34099 -0.001,-1.22576 -0.0142,-2.30082 -0.0456,-3.16213 -0.0536,-1.4649 -1.07239,-2.73112 -2.42429,-3.14025 -4.01669,-1.2156 -7.93104,-1.8324 -11.97464,-1.8324 z m -0.75696,0.41917 c 3.97956,-0.0683 7.96219,0.46056 11.79998,1.50607 1.13693,0.15845 2.23535,0.91815 2.57195,2.04974 0.19569,0.87944 0.11697,2.88138 0.14978,3.77654 5e-4,0.0292 0.002,0.0583 0.002,0.0875 -0.0995,4.66343 -1.46969,9.26787 -3.7296,13.33707 -0.95883,1.71546 -2.07612,3.36369 -3.36672,4.85601 -1.96309,2.63142 -4.25733,4.73723 -6.67034,5.96926 -2.30117,-1.17493 -4.49428,-3.14434 -6.39522,-5.6066 -0.18504,-0.20627 -0.36637,-0.41576 -0.54409,-0.62779 -3.00075,-3.59811 -5.13021,-7.9168 -6.1849,-12.48048 -0.46354,-1.85656 -0.65668,-3.76647 -0.68642,-5.67713 -1e-5,-5e-4 0,-0.001 0,-0.002 0.0192,-0.28779 0.0115,-0.70224 0.004,-1.15701 0.0181,-0.34495 5e-4,-0.69411 -0.006,-1.04208 0.009,-0.57322 0.0481,-1.11078 0.16719,-1.45274 0.29761,-1.02799 1.24771,-1.7435 2.26898,-1.95477 h 2.2e-4 c 1.72947,-0.47377 3.4865,-0.85334 5.26008,-1.12238 1.77358,-0.26904 3.56361,-0.42758 5.35846,-0.45911 z" />
    <path
       id="path6"
       style="opacity:1;fill:#ffffff;fill-opacity:1;stroke:none;stroke-width:3.88143;stroke-linecap:square;stroke-linejoin:miter;stroke-dasharray:none;stroke-opacity:1;paint-order:fill markers stroke"
       d="m 127.97644,360.69989 c -2.39572,3.49059 -4.79072,6.98156 -7.18702,10.47174 0.47503,0.50539 0.89316,1.06021 1.24624,1.65734 2.87616,-3.93081 5.75153,-7.86212 8.62618,-11.79404 -0.89138,-0.14168 -1.78697,-0.25373 -2.6854,-0.33504 z m -7.66525,0.075 c -0.77562,0.0854 -1.54904,0.19352 -2.31806,0.32378 -0.39398,2.77025 -0.78852,5.54042 -1.18399,8.31047 0.65624,0.0321 1.30098,0.17371 1.92141,0.38624 0.52671,-3.00687 1.05377,-6.01365 1.58064,-9.02049 z m -7.54098,3.20377 c -0.0351,1.52861 -0.0134,3.07209 0.17655,4.57514 0.0912,0.65799 0.20706,1.31231 0.34651,1.96158 0.36572,-0.23927 0.74527,-0.45637 1.14469,-0.63567 -0.55895,-1.96576 -1.09642,-3.9403 -1.66775,-5.90105 z m 23.22947,5.26009 c -4.36031,2.00339 -8.72039,4.0072 -13.08086,6.01026 0.1366,0.67757 0.20039,1.36639 0.22413,2.05653 4.08869,-1.78132 8.17705,-3.5633 12.26591,-5.34422 0.21522,-0.79302 0.39477,-1.59468 0.53622,-2.40092 0.0191,-0.10704 0.0372,-0.2143 0.0546,-0.32165 z m -16.19944,4.46701 c -0.20689,0.16514 -0.41389,0.33029 -0.62078,0.49544 -1.1982,0.95809 -2.39729,1.91506 -3.59511,2.87362 0.21189,0.42959 0.43445,0.85398 0.66731,1.27237 0.34629,0.61466 0.71404,1.22066 1.10432,1.81264 0.81449,-2.15143 1.62864,-4.30307 2.44426,-6.45407 z m 3.06717,5.95332 c -0.0179,0.0642 -0.0358,0.12846 -0.0538,0.1927 -0.13794,0.54326 -0.34289,1.06565 -0.56278,1.58021 2.46989,0.47271 4.93951,0.94674 7.40925,1.42024 0.45641,-0.52451 0.88879,-1.06824 1.29872,-1.62844 -2.69705,-0.52217 -5.39421,-1.04352 -8.09144,-1.56471 z m -1.64438,3.43895 -0.89972,0.76101 c 1.21618,1.2304 2.58213,2.30412 4.11369,3.14195 z" />
    <path
       style="opacity:1;fill:none;fill-opacity:1;stroke:none;stroke-width:0.349995;stroke-linecap:square;stroke-linejoin:miter;stroke-dasharray:none;stroke-opacity:1;paint-order:fill markers stroke"
       d="m 110.10419,357.87665 c 9.83943,-2.90219 19.46916,-2.9022 28.88919,0"
       id="path7"
       sodipodi:nodetypes="cc" />
    <path
       d="m 173.98684,375.44175 v 8.6928 h -3.27116 v -8.45049 c 0,-1.81731 -0.87837,-3.72548 -3.21058,-3.96779 -2.93799,-0.33318 -4.11924,1.93846 -4.45241,4.02837 -0.0606,0.81779 -0.12116,2.12019 -0.12116,3.33173 v 5.05818 h -2.99856 v -8.45049 c 0,-1.81731 -0.7875,-3.6952 -3.24087,-3.9375 -2.90769,-0.36347 -4.11923,1.90817 -4.42212,3.99808 -0.0606,0.7875 -0.12115,2.05962 -0.12115,3.33173 v 5.05818 h -3.27116 v -14.78079 h 3.27116 v 0.75722 c 0,1.42356 -0.69664,3.18029 -0.69664,3.18029 h 0.48462 c 0.96923,-3.48318 4.11923,-4.78558 6.75433,-4.14953 2.87741,0.69664 3.4226,3.48318 3.36203,4.14953 h 0.48461 c 1.15097,-3.48318 4.30097,-4.78558 6.93607,-4.14953 3.15,0.78751 4.51299,3.9678 4.51299,6.30001 z m 7.20866,-4.96731 v 13.66011 h -3.27116 v -11.20674 c 0,-0.33318 -0.2726,-0.60577 -0.60577,-0.60577 h -1.33269 v -2.96828 h 4.08894 c 0.60577,0 1.12068,0.48462 1.12068,1.12068 z m -1.72645,-4.90674 c 0.87837,0 1.66587,-0.75721 1.66587,-1.66587 0,-0.93894 -0.7875,-1.66586 -1.66587,-1.66586 -0.93894,0 -1.72644,0.72692 -1.72644,1.66586 0,0.90866 0.7875,1.66587 1.72644,1.66587 z m 6.11831,13.84185 v -7.08751 h -2.39279 v -2.96828 h 2.39279 v -6.42116 h 3.27115 v 6.42116 h 4.39184 v 2.96828 h -4.39184 v 7.05722 c 0,0.99952 0.78751,1.78702 1.75674,1.78702 0.5149,0 2.39279,0 2.6351,0 v 2.96827 c -0.84808,0 -0.42404,0 -2.93799,0 -3.15,0 -4.725,-2.3625 -4.725,-4.725 z m 24.35196,-3.75578 v 8.48078 h -3.27116 v -8.23847 c 0,-2.12019 -0.84807,-3.96779 -3.21058,-4.24039 -2.81683,-0.30288 -4.14952,1.69616 -4.45241,4.08895 -0.0606,0.7875 -0.12115,2.30192 -0.12115,3.66491 v 4.725 h -3.27116 V 362.9326 h 3.27116 v 6.90578 c 0,1.42356 -0.69664,3.45289 -0.69664,3.45289 h 0.45433 c 0.87837,-3.48318 4.08895,-4.78558 6.78462,-4.14953 3.21059,0.78751 4.51299,3.9678 4.51299,6.51203 z m 13.47837,-6.30001 v 2.96828 c -4.30097,0 -5.87597,3.24087 -5.87597,6.14856 v 5.66395 h -3.27116 v -11.3279 c 0,-0.30288 -0.18173,-0.48461 -0.48461,-0.48461 h -1.63558 v -2.96828 h 3.6649 c 0.75722,0 1.3327,0.39375 1.3327,1.18126 0,1.27211 -0.45433,3.81635 -0.45433,3.81635 h 0.45433 c 0.84808,-2.93799 2.96827,-4.96732 6.26972,-4.99761 z m 12.26686,6.75434 v 1.09039 c 0,0.42403 -0.0303,0.87836 -0.0909,1.24182 -0.15144,1.09039 -0.87836,2.24135 -2.15048,2.93799 -1.24183,0.66635 -2.05962,0.69663 -3.24087,0.57548 -1.15096,-0.21202 -2.18077,-1.0601 -2.18077,-2.30193 0,-1.39327 1.33269,-2.18077 2.48366,-2.3625 3.15,-0.48461 4.69471,-0.81779 5.17933,-1.18125 z m 5.11876,5.08847 h -1.18126 c -0.39375,0 -0.66634,-0.30289 -0.66634,-0.63606 v -5.81539 c 0,-2.96828 -2.27164,-5.75482 -6.93607,-5.75482 -4.69472,0 -6.99664,2.81683 -6.99664,5.57309 h 3.18029 c 0,-1.51443 1.36298,-2.87741 3.75577,-2.87741 1.87789,0 3.24087,0.87837 3.51347,2.02933 0.30288,1.09038 -0.90866,1.27212 -2.02933,1.51442 -1.36298,0.2726 -3.05914,0.30289 -4.9976,0.75722 -1.78702,0.42403 -3.54376,1.54471 -3.54376,4.17981 0,2.42308 1.90818,4.05866 3.93751,4.27068 1.8476,0.21202 3.63462,-0.0909 5.17933,-1.09039 1.81731,-1.15096 2.54424,-3.4226 2.54424,-3.4226 h 0.48461 c 0,0 -0.48461,1.09039 -0.48461,2.3625 0,1.0601 0.69663,1.87789 1.87788,1.87789 h 2.36251 z"
       id="text7"
       style="font-weight:600;font-size:30.2885px;line-height:1;font-family:'Neue Regrade';-inkscape-font-specification:'Neue Regrade Semi-Bold';font-variant-ligatures:no-common-ligatures;text-align:center;letter-spacing:0px;word-spacing:0px;text-anchor:middle;fill:#ffffff;stroke-width:4.29285;stroke-linecap:square;paint-order:fill markers stroke"
       aria-label="mithra" />
  </g>
  <script
     id="mesh_polyfill"
     type="text/javascript">
!function(){const t=&quot;http://www.w3.org/2000/svg&quot;,e=&quot;http://www.w3.org/1999/xlink&quot;,s=&quot;http://www.w3.org/1999/xhtml&quot;,r=2;if(document.createElementNS(t,&quot;meshgradient&quot;).x)return;const n=(t,e,s,r)=&gt;{let n=new x(.5*(e.x+s.x),.5*(e.y+s.y)),o=new x(.5*(t.x+e.x),.5*(t.y+e.y)),i=new x(.5*(s.x+r.x),.5*(s.y+r.y)),a=new x(.5*(n.x+o.x),.5*(n.y+o.y)),h=new x(.5*(n.x+i.x),.5*(n.y+i.y)),l=new x(.5*(a.x+h.x),.5*(a.y+h.y));return[[t,o,a,l],[l,h,i,r]]},o=t=&gt;{let e=t[0].distSquared(t[1]),s=t[2].distSquared(t[3]),r=.25*t[0].distSquared(t[2]),n=.25*t[1].distSquared(t[3]),o=e&gt;s?e:s,i=r&gt;n?r:n;return 18*(o&gt;i?o:i)},i=(t,e)=&gt;Math.sqrt(t.distSquared(e)),a=(t,e)=&gt;t.scale(2/3).add(e.scale(1/3)),h=t=&gt;{let e,s,r,n,o,i,a,h=new g;return t.match(/(\w+\(\s*[^)]+\))+/g).forEach(t=&gt;{let l=t.match(/[\w.-]+/g),d=l.shift();switch(d){case&quot;translate&quot;:2===l.length?e=new g(1,0,0,1,l[0],l[1]):(console.error(&quot;mesh.js: translate does not have 2 arguments!&quot;),e=new g(1,0,0,1,0,0)),h=h.append(e);break;case&quot;scale&quot;:1===l.length?s=new g(l[0],0,0,l[0],0,0):2===l.length?s=new g(l[0],0,0,l[1],0,0):(console.error(&quot;mesh.js: scale does not have 1 or 2 arguments!&quot;),s=new g(1,0,0,1,0,0)),h=h.append(s);break;case&quot;rotate&quot;:if(3===l.length&amp;&amp;(e=new g(1,0,0,1,l[1],l[2]),h=h.append(e)),l[0]){r=l[0]*Math.PI/180;let t=Math.cos(r),e=Math.sin(r);Math.abs(t)&lt;1e-16&amp;&amp;(t=0),Math.abs(e)&lt;1e-16&amp;&amp;(e=0),a=new g(t,e,-e,t,0,0),h=h.append(a)}else console.error(&quot;math.js: No argument to rotate transform!&quot;);3===l.length&amp;&amp;(e=new g(1,0,0,1,-l[1],-l[2]),h=h.append(e));break;case&quot;skewX&quot;:l[0]?(r=l[0]*Math.PI/180,n=Math.tan(r),o=new g(1,0,n,1,0,0),h=h.append(o)):console.error(&quot;math.js: No argument to skewX transform!&quot;);break;case&quot;skewY&quot;:l[0]?(r=l[0]*Math.PI/180,n=Math.tan(r),i=new g(1,n,0,1,0,0),h=h.append(i)):console.error(&quot;math.js: No argument to skewY transform!&quot;);break;case&quot;matrix&quot;:6===l.length?h=h.append(new g(...l)):console.error(&quot;math.js: Incorrect number of arguments for matrix!&quot;);break;default:console.error(&quot;mesh.js: Unhandled transform type: &quot;+d)}}),h},l=t=&gt;{let e=[],s=t.split(/[ ,]+/);for(let t=0,r=s.length-1;t&lt;r;t+=2)e.push(new x(parseFloat(s[t]),parseFloat(s[t+1])));return e},d=(t,e)=&gt;{for(let s in e)t.setAttribute(s,e[s])},c=(t,e,s,r,n)=&gt;{let o,i,a=[0,0,0,0];for(let h=0;h&lt;3;++h)e[h]&lt;t[h]&amp;&amp;e[h]&lt;s[h]||t[h]&lt;e[h]&amp;&amp;s[h]&lt;e[h]?a[h]=0:(a[h]=.5*((e[h]-t[h])/r+(s[h]-e[h])/n),o=Math.abs(3*(e[h]-t[h])/r),i=Math.abs(3*(s[h]-e[h])/n),a[h]&gt;o?a[h]=o:a[h]&gt;i&amp;&amp;(a[h]=i));return a},u=[[1,0,0,0,0,0,0,0,0,0,0,0,0,0,0,0],[0,0,0,0,1,0,0,0,0,0,0,0,0,0,0,0],[-3,3,0,0,-2,-1,0,0,0,0,0,0,0,0,0,0],[2,-2,0,0,1,1,0,0,0,0,0,0,0,0,0,0],[0,0,0,0,0,0,0,0,1,0,0,0,0,0,0,0],[0,0,0,0,0,0,0,0,0,0,0,0,1,0,0,0],[0,0,0,0,0,0,0,0,-3,3,0,0,-2,-1,0,0],[0,0,0,0,0,0,0,0,2,-2,0,0,1,1,0,0],[-3,0,3,0,0,0,0,0,-2,0,-1,0,0,0,0,0],[0,0,0,0,-3,0,3,0,0,0,0,0,-2,0,-1,0],[9,-9,-9,9,6,3,-6,-3,6,-6,3,-3,4,2,2,1],[-6,6,6,-6,-3,-3,3,3,-4,4,-2,2,-2,-2,-1,-1],[2,0,-2,0,0,0,0,0,1,0,1,0,0,0,0,0],[0,0,0,0,2,0,-2,0,0,0,0,0,1,0,1,0],[-6,6,6,-6,-4,-2,4,2,-3,3,-3,3,-2,-1,-2,-1],[4,-4,-4,4,2,2,-2,-2,2,-2,2,-2,1,1,1,1]],f=t=&gt;{let e=[];for(let s=0;s&lt;16;++s){e[s]=0;for(let r=0;r&lt;16;++r)e[s]+=u[s][r]*t[r]}return e},p=(t,e,s)=&gt;{const r=e*e,n=s*s,o=e*e*e,i=s*s*s;return t[0]+t[1]*e+t[2]*r+t[3]*o+t[4]*s+t[5]*s*e+t[6]*s*r+t[7]*s*o+t[8]*n+t[9]*n*e+t[10]*n*r+t[11]*n*o+t[12]*i+t[13]*i*e+t[14]*i*r+t[15]*i*o},y=t=&gt;{let e=[],s=[],r=[];for(let s=0;s&lt;4;++s)e[s]=[],e[s][0]=n(t[0][s],t[1][s],t[2][s],t[3][s]),e[s][1]=[],e[s][1].push(...n(...e[s][0][0])),e[s][1].push(...n(...e[s][0][1])),e[s][2]=[],e[s][2].push(...n(...e[s][1][0])),e[s][2].push(...n(...e[s][1][1])),e[s][2].push(...n(...e[s][1][2])),e[s][2].push(...n(...e[s][1][3]));for(let t=0;t&lt;8;++t){s[t]=[];for(let r=0;r&lt;4;++r)s[t][r]=[],s[t][r][0]=n(e[0][2][t][r],e[1][2][t][r],e[2][2][t][r],e[3][2][t][r]),s[t][r][1]=[],s[t][r][1].push(...n(...s[t][r][0][0])),s[t][r][1].push(...n(...s[t][r][0][1])),s[t][r][2]=[],s[t][r][2].push(...n(...s[t][r][1][0])),s[t][r][2].push(...n(...s[t][r][1][1])),s[t][r][2].push(...n(...s[t][r][1][2])),s[t][r][2].push(...n(...s[t][r][1][3]))}for(let t=0;t&lt;8;++t){r[t]=[];for(let e=0;e&lt;8;++e)r[t][e]=[],r[t][e][0]=s[t][0][2][e],r[t][e][1]=s[t][1][2][e],r[t][e][2]=s[t][2][2][e],r[t][e][3]=s[t][3][2][e]}return r};class x{constructor(t,e){this.x=t||0,this.y=e||0}toString(){return`(x=${this.x}, y=${this.y})`}clone(){return new x(this.x,this.y)}add(t){return new x(this.x+t.x,this.y+t.y)}scale(t){return void 0===t.x?new x(this.x*t,this.y*t):new x(this.x*t.x,this.y*t.y)}distSquared(t){let e=this.x-t.x,s=this.y-t.y;return e*e+s*s}transform(t){let e=this.x*t.a+this.y*t.c+t.e,s=this.x*t.b+this.y*t.d+t.f;return new x(e,s)}}class g{constructor(t,e,s,r,n,o){void 0===t?(this.a=1,this.b=0,this.c=0,this.d=1,this.e=0,this.f=0):(this.a=t,this.b=e,this.c=s,this.d=r,this.e=n,this.f=o)}toString(){return`affine: ${this.a} ${this.c} ${this.e} \n       ${this.b} ${this.d} ${this.f}`}append(t){t instanceof g||console.error(&quot;mesh.js: argument to Affine.append is not affine!&quot;);let e=this.a*t.a+this.c*t.b,s=this.b*t.a+this.d*t.b,r=this.a*t.c+this.c*t.d,n=this.b*t.c+this.d*t.d,o=this.a*t.e+this.c*t.f+this.e,i=this.b*t.e+this.d*t.f+this.f;return new g(e,s,r,n,o,i)}}class w{constructor(t,e){this.nodes=t,this.colors=e}paintCurve(t,e){if(o(this.nodes)&gt;r){const s=n(...this.nodes);let r=[[],[]],o=[[],[]];for(let t=0;t&lt;4;++t)r[0][t]=this.colors[0][t],r[1][t]=(this.colors[0][t]+this.colors[1][t])/2,o[0][t]=r[1][t],o[1][t]=this.colors[1][t];let i=new w(s[0],r),a=new w(s[1],o);i.paintCurve(t,e),a.paintCurve(t,e)}else{let s=Math.round(this.nodes[0].x);if(s&gt;=0&amp;&amp;s&lt;e){let r=4*(~~this.nodes[0].y*e+s);t[r]=Math.round(this.colors[0][0]),t[r+1]=Math.round(this.colors[0][1]),t[r+2]=Math.round(this.colors[0][2]),t[r+3]=Math.round(this.colors[0][3])}}}}class m{constructor(t,e){this.nodes=t,this.colors=e}split(){let t=[[],[],[],[]],e=[[],[],[],[]],s=[[[],[]],[[],[]]],r=[[[],[]],[[],[]]];for(let s=0;s&lt;4;++s){const r=n(this.nodes[0][s],this.nodes[1][s],this.nodes[2][s],this.nodes[3][s]);t[0][s]=r[0][0],t[1][s]=r[0][1],t[2][s]=r[0][2],t[3][s]=r[0][3],e[0][s]=r[1][0],e[1][s]=r[1][1],e[2][s]=r[1][2],e[3][s]=r[1][3]}for(let t=0;t&lt;4;++t)s[0][0][t]=this.colors[0][0][t],s[0][1][t]=this.colors[0][1][t],s[1][0][t]=(this.colors[0][0][t]+this.colors[1][0][t])/2,s[1][1][t]=(this.colors[0][1][t]+this.colors[1][1][t])/2,r[0][0][t]=s[1][0][t],r[0][1][t]=s[1][1][t],r[1][0][t]=this.colors[1][0][t],r[1][1][t]=this.colors[1][1][t];return[new m(t,s),new m(e,r)]}paint(t,e){let s,n=!1;for(let t=0;t&lt;4;++t)if((s=o([this.nodes[0][t],this.nodes[1][t],this.nodes[2][t],this.nodes[3][t]]))&gt;r){n=!0;break}if(n){let s=this.split();s[0].paint(t,e),s[1].paint(t,e)}else{new w([...this.nodes[0]],[...this.colors[0]]).paintCurve(t,e)}}}class b{constructor(t){this.readMesh(t),this.type=t.getAttribute(&quot;type&quot;)||&quot;bilinear&quot;}readMesh(t){let e=[[]],s=[[]],r=Number(t.getAttribute(&quot;x&quot;)),n=Number(t.getAttribute(&quot;y&quot;));e[0][0]=new x(r,n);let o=t.children;for(let t=0,r=o.length;t&lt;r;++t){e[3*t+1]=[],e[3*t+2]=[],e[3*t+3]=[],s[t+1]=[];let r=o[t].children;for(let n=0,o=r.length;n&lt;o;++n){let o=r[n].children;for(let r=0,i=o.length;r&lt;i;++r){let i=r;0!==t&amp;&amp;++i;let h,d=o[r].getAttribute(&quot;path&quot;),c=&quot;l&quot;;null!=d&amp;&amp;(c=(h=d.match(/\s*([lLcC])\s*(.*)/))[1]);let u=l(h[2]);switch(c){case&quot;l&quot;:0===i?(e[3*t][3*n+3]=u[0].add(e[3*t][3*n]),e[3*t][3*n+1]=a(e[3*t][3*n],e[3*t][3*n+3]),e[3*t][3*n+2]=a(e[3*t][3*n+3],e[3*t][3*n])):1===i?(e[3*t+3][3*n+3]=u[0].add(e[3*t][3*n+3]),e[3*t+1][3*n+3]=a(e[3*t][3*n+3],e[3*t+3][3*n+3]),e[3*t+2][3*n+3]=a(e[3*t+3][3*n+3],e[3*t][3*n+3])):2===i?(0===n&amp;&amp;(e[3*t+3][3*n+0]=u[0].add(e[3*t+3][3*n+3])),e[3*t+3][3*n+1]=a(e[3*t+3][3*n],e[3*t+3][3*n+3]),e[3*t+3][3*n+2]=a(e[3*t+3][3*n+3],e[3*t+3][3*n])):(e[3*t+1][3*n]=a(e[3*t][3*n],e[3*t+3][3*n]),e[3*t+2][3*n]=a(e[3*t+3][3*n],e[3*t][3*n]));break;case&quot;L&quot;:0===i?(e[3*t][3*n+3]=u[0],e[3*t][3*n+1]=a(e[3*t][3*n],e[3*t][3*n+3]),e[3*t][3*n+2]=a(e[3*t][3*n+3],e[3*t][3*n])):1===i?(e[3*t+3][3*n+3]=u[0],e[3*t+1][3*n+3]=a(e[3*t][3*n+3],e[3*t+3][3*n+3]),e[3*t+2][3*n+3]=a(e[3*t+3][3*n+3],e[3*t][3*n+3])):2===i?(0===n&amp;&amp;(e[3*t+3][3*n+0]=u[0]),e[3*t+3][3*n+1]=a(e[3*t+3][3*n],e[3*t+3][3*n+3]),e[3*t+3][3*n+2]=a(e[3*t+3][3*n+3],e[3*t+3][3*n])):(e[3*t+1][3*n]=a(e[3*t][3*n],e[3*t+3][3*n]),e[3*t+2][3*n]=a(e[3*t+3][3*n],e[3*t][3*n]));break;case&quot;c&quot;:0===i?(e[3*t][3*n+1]=u[0].add(e[3*t][3*n]),e[3*t][3*n+2]=u[1].add(e[3*t][3*n]),e[3*t][3*n+3]=u[2].add(e[3*t][3*n])):1===i?(e[3*t+1][3*n+3]=u[0].add(e[3*t][3*n+3]),e[3*t+2][3*n+3]=u[1].add(e[3*t][3*n+3]),e[3*t+3][3*n+3]=u[2].add(e[3*t][3*n+3])):2===i?(e[3*t+3][3*n+2]=u[0].add(e[3*t+3][3*n+3]),e[3*t+3][3*n+1]=u[1].add(e[3*t+3][3*n+3]),0===n&amp;&amp;(e[3*t+3][3*n+0]=u[2].add(e[3*t+3][3*n+3]))):(e[3*t+2][3*n]=u[0].add(e[3*t+3][3*n]),e[3*t+1][3*n]=u[1].add(e[3*t+3][3*n]));break;case&quot;C&quot;:0===i?(e[3*t][3*n+1]=u[0],e[3*t][3*n+2]=u[1],e[3*t][3*n+3]=u[2]):1===i?(e[3*t+1][3*n+3]=u[0],e[3*t+2][3*n+3]=u[1],e[3*t+3][3*n+3]=u[2]):2===i?(e[3*t+3][3*n+2]=u[0],e[3*t+3][3*n+1]=u[1],0===n&amp;&amp;(e[3*t+3][3*n+0]=u[2])):(e[3*t+2][3*n]=u[0],e[3*t+1][3*n]=u[1]);break;default:console.error(&quot;mesh.js: &quot;+c+&quot; invalid path type.&quot;)}if(0===t&amp;&amp;0===n||r&gt;0){let e=window.getComputedStyle(o[r]).stopColor.match(/^rgb\s*\(\s*(\d+)\s*,\s*(\d+)\s*,\s*(\d+)\s*\)$/i),a=window.getComputedStyle(o[r]).stopOpacity,h=255;a&amp;&amp;(h=Math.floor(255*a)),e&amp;&amp;(0===i?(s[t][n]=[],s[t][n][0]=Math.floor(e[1]),s[t][n][1]=Math.floor(e[2]),s[t][n][2]=Math.floor(e[3]),s[t][n][3]=h):1===i?(s[t][n+1]=[],s[t][n+1][0]=Math.floor(e[1]),s[t][n+1][1]=Math.floor(e[2]),s[t][n+1][2]=Math.floor(e[3]),s[t][n+1][3]=h):2===i?(s[t+1][n+1]=[],s[t+1][n+1][0]=Math.floor(e[1]),s[t+1][n+1][1]=Math.floor(e[2]),s[t+1][n+1][2]=Math.floor(e[3]),s[t+1][n+1][3]=h):3===i&amp;&amp;(s[t+1][n]=[],s[t+1][n][0]=Math.floor(e[1]),s[t+1][n][1]=Math.floor(e[2]),s[t+1][n][2]=Math.floor(e[3]),s[t+1][n][3]=h))}}e[3*t+1][3*n+1]=new x,e[3*t+1][3*n+2]=new x,e[3*t+2][3*n+1]=new x,e[3*t+2][3*n+2]=new x,e[3*t+1][3*n+1].x=(-4*e[3*t][3*n].x+6*(e[3*t][3*n+1].x+e[3*t+1][3*n].x)+-2*(e[3*t][3*n+3].x+e[3*t+3][3*n].x)+3*(e[3*t+3][3*n+1].x+e[3*t+1][3*n+3].x)+-1*e[3*t+3][3*n+3].x)/9,e[3*t+1][3*n+2].x=(-4*e[3*t][3*n+3].x+6*(e[3*t][3*n+2].x+e[3*t+1][3*n+3].x)+-2*(e[3*t][3*n].x+e[3*t+3][3*n+3].x)+3*(e[3*t+3][3*n+2].x+e[3*t+1][3*n].x)+-1*e[3*t+3][3*n].x)/9,e[3*t+2][3*n+1].x=(-4*e[3*t+3][3*n].x+6*(e[3*t+3][3*n+1].x+e[3*t+2][3*n].x)+-2*(e[3*t+3][3*n+3].x+e[3*t][3*n].x)+3*(e[3*t][3*n+1].x+e[3*t+2][3*n+3].x)+-1*e[3*t][3*n+3].x)/9,e[3*t+2][3*n+2].x=(-4*e[3*t+3][3*n+3].x+6*(e[3*t+3][3*n+2].x+e[3*t+2][3*n+3].x)+-2*(e[3*t+3][3*n].x+e[3*t][3*n+3].x)+3*(e[3*t][3*n+2].x+e[3*t+2][3*n].x)+-1*e[3*t][3*n].x)/9,e[3*t+1][3*n+1].y=(-4*e[3*t][3*n].y+6*(e[3*t][3*n+1].y+e[3*t+1][3*n].y)+-2*(e[3*t][3*n+3].y+e[3*t+3][3*n].y)+3*(e[3*t+3][3*n+1].y+e[3*t+1][3*n+3].y)+-1*e[3*t+3][3*n+3].y)/9,e[3*t+1][3*n+2].y=(-4*e[3*t][3*n+3].y+6*(e[3*t][3*n+2].y+e[3*t+1][3*n+3].y)+-2*(e[3*t][3*n].y+e[3*t+3][3*n+3].y)+3*(e[3*t+3][3*n+2].y+e[3*t+1][3*n].y)+-1*e[3*t+3][3*n].y)/9,e[3*t+2][3*n+1].y=(-4*e[3*t+3][3*n].y+6*(e[3*t+3][3*n+1].y+e[3*t+2][3*n].y)+-2*(e[3*t+3][3*n+3].y+e[3*t][3*n].y)+3*(e[3*t][3*n+1].y+e[3*t+2][3*n+3].y)+-1*e[3*t][3*n+3].y)/9,e[3*t+2][3*n+2].y=(-4*e[3*t+3][3*n+3].y+6*(e[3*t+3][3*n+2].y+e[3*t+2][3*n+3].y)+-2*(e[3*t+3][3*n].y+e[3*t][3*n+3].y)+3*(e[3*t][3*n+2].y+e[3*t+2][3*n].y)+-1*e[3*t][3*n].y)/9}}this.nodes=e,this.colors=s}paintMesh(t,e){let s=(this.nodes.length-1)/3,r=(this.nodes[0].length-1)/3;if(&quot;bilinear&quot;===this.type||s&lt;2||r&lt;2){let n;for(let o=0;o&lt;s;++o)for(let s=0;s&lt;r;++s){let r=[];for(let t=3*o,e=3*o+4;t&lt;e;++t)r.push(this.nodes[t].slice(3*s,3*s+4));let i=[];i.push(this.colors[o].slice(s,s+2)),i.push(this.colors[o+1].slice(s,s+2)),(n=new m(r,i)).paint(t,e)}}else{let n,o,a,h,l,d,u;const x=s,g=r;s++,r++;let w=new Array(s);for(let t=0;t&lt;s;++t){w[t]=new Array(r);for(let e=0;e&lt;r;++e)w[t][e]=[],w[t][e][0]=this.nodes[3*t][3*e],w[t][e][1]=this.colors[t][e]}for(let t=0;t&lt;s;++t)for(let e=0;e&lt;r;++e)0!==t&amp;&amp;t!==x&amp;&amp;(n=i(w[t-1][e][0],w[t][e][0]),o=i(w[t+1][e][0],w[t][e][0]),w[t][e][2]=c(w[t-1][e][1],w[t][e][1],w[t+1][e][1],n,o)),0!==e&amp;&amp;e!==g&amp;&amp;(n=i(w[t][e-1][0],w[t][e][0]),o=i(w[t][e+1][0],w[t][e][0]),w[t][e][3]=c(w[t][e-1][1],w[t][e][1],w[t][e+1][1],n,o));for(let t=0;t&lt;r;++t){w[0][t][2]=[],w[x][t][2]=[];for(let e=0;e&lt;4;++e)n=i(w[1][t][0],w[0][t][0]),o=i(w[x][t][0],w[x-1][t][0]),w[0][t][2][e]=n&gt;0?2*(w[1][t][1][e]-w[0][t][1][e])/n-w[1][t][2][e]:0,w[x][t][2][e]=o&gt;0?2*(w[x][t][1][e]-w[x-1][t][1][e])/o-w[x-1][t][2][e]:0}for(let t=0;t&lt;s;++t){w[t][0][3]=[],w[t][g][3]=[];for(let e=0;e&lt;4;++e)n=i(w[t][1][0],w[t][0][0]),o=i(w[t][g][0],w[t][g-1][0]),w[t][0][3][e]=n&gt;0?2*(w[t][1][1][e]-w[t][0][1][e])/n-w[t][1][3][e]:0,w[t][g][3][e]=o&gt;0?2*(w[t][g][1][e]-w[t][g-1][1][e])/o-w[t][g-1][3][e]:0}for(let s=0;s&lt;x;++s)for(let r=0;r&lt;g;++r){let n=i(w[s][r][0],w[s+1][r][0]),o=i(w[s][r+1][0],w[s+1][r+1][0]),c=i(w[s][r][0],w[s][r+1][0]),x=i(w[s+1][r][0],w[s+1][r+1][0]),g=[[],[],[],[]];for(let t=0;t&lt;4;++t){(d=[])[0]=w[s][r][1][t],d[1]=w[s+1][r][1][t],d[2]=w[s][r+1][1][t],d[3]=w[s+1][r+1][1][t],d[4]=w[s][r][2][t]*n,d[5]=w[s+1][r][2][t]*n,d[6]=w[s][r+1][2][t]*o,d[7]=w[s+1][r+1][2][t]*o,d[8]=w[s][r][3][t]*c,d[9]=w[s+1][r][3][t]*x,d[10]=w[s][r+1][3][t]*c,d[11]=w[s+1][r+1][3][t]*x,d[12]=0,d[13]=0,d[14]=0,d[15]=0,u=f(d);for(let e=0;e&lt;9;++e){g[t][e]=[];for(let s=0;s&lt;9;++s)g[t][e][s]=p(u,e/8,s/8),g[t][e][s]&gt;255?g[t][e][s]=255:g[t][e][s]&lt;0&amp;&amp;(g[t][e][s]=0)}}h=[];for(let t=3*s,e=3*s+4;t&lt;e;++t)h.push(this.nodes[t].slice(3*r,3*r+4));l=y(h);for(let s=0;s&lt;8;++s)for(let r=0;r&lt;8;++r)(a=new m(l[s][r],[[[g[0][s][r],g[1][s][r],g[2][s][r],g[3][s][r]],[g[0][s][r+1],g[1][s][r+1],g[2][s][r+1],g[3][s][r+1]]],[[g[0][s+1][r],g[1][s+1][r],g[2][s+1][r],g[3][s+1][r]],[g[0][s+1][r+1],g[1][s+1][r+1],g[2][s+1][r+1],g[3][s+1][r+1]]]])).paint(t,e)}}}transform(t){if(t instanceof x)for(let e=0,s=this.nodes.length;e&lt;s;++e)for(let s=0,r=this.nodes[0].length;s&lt;r;++s)this.nodes[e][s]=this.nodes[e][s].add(t);else if(t instanceof g)for(let e=0,s=this.nodes.length;e&lt;s;++e)for(let s=0,r=this.nodes[0].length;s&lt;r;++s)this.nodes[e][s]=this.nodes[e][s].transform(t)}scale(t){for(let e=0,s=this.nodes.length;e&lt;s;++e)for(let s=0,r=this.nodes[0].length;s&lt;r;++s)this.nodes[e][s]=this.nodes[e][s].scale(t)}}document.querySelectorAll(&quot;rect,circle,ellipse,path,text&quot;).forEach((r,n)=&gt;{let o=r.getAttribute(&quot;id&quot;);o||(o=&quot;patchjs_shape&quot;+n,r.setAttribute(&quot;id&quot;,o));const i=r.style.fill.match(/^url\(\s*&quot;?\s*#([^\s&quot;]+)&quot;?\s*\)/),a=r.style.stroke.match(/^url\(\s*&quot;?\s*#([^\s&quot;]+)&quot;?\s*\)/);if(i&amp;&amp;i[1]){const a=document.getElementById(i[1]);if(a&amp;&amp;&quot;meshgradient&quot;===a.nodeName){const i=r.getBBox();let l=document.createElementNS(s,&quot;canvas&quot;);d(l,{width:i.width,height:i.height});const c=l.getContext(&quot;2d&quot;);let u=c.createImageData(i.width,i.height);const f=new b(a);&quot;objectBoundingBox&quot;===a.getAttribute(&quot;gradientUnits&quot;)&amp;&amp;f.scale(new x(i.width,i.height));const p=a.getAttribute(&quot;gradientTransform&quot;);null!=p&amp;&amp;f.transform(h(p)),&quot;userSpaceOnUse&quot;===a.getAttribute(&quot;gradientUnits&quot;)&amp;&amp;f.transform(new x(-i.x,-i.y)),f.paintMesh(u.data,l.width),c.putImageData(u,0,0);const y=document.createElementNS(t,&quot;image&quot;);d(y,{width:i.width,height:i.height,x:i.x,y:i.y});let g=l.toDataURL();y.setAttributeNS(e,&quot;xlink:href&quot;,g),r.parentNode.insertBefore(y,r),r.style.fill=&quot;none&quot;;const w=document.createElementNS(t,&quot;use&quot;);w.setAttributeNS(e,&quot;xlink:href&quot;,&quot;#&quot;+o);const m=&quot;patchjs_clip&quot;+n,M=document.createElementNS(t,&quot;clipPath&quot;);M.setAttribute(&quot;id&quot;,m),M.appendChild(w),r.parentElement.insertBefore(M,r),y.setAttribute(&quot;clip-path&quot;,&quot;url(#&quot;+m+&quot;)&quot;),u=null,l=null,g=null}}if(a&amp;&amp;a[1]){const o=document.getElementById(a[1]);if(o&amp;&amp;&quot;meshgradient&quot;===o.nodeName){const i=parseFloat(r.style.strokeWidth.slice(0,-2))*(parseFloat(r.style.strokeMiterlimit)||parseFloat(r.getAttribute(&quot;stroke-miterlimit&quot;))||1),a=r.getBBox(),l=Math.trunc(a.width+i),c=Math.trunc(a.height+i),u=Math.trunc(a.x-i/2),f=Math.trunc(a.y-i/2);let p=document.createElementNS(s,&quot;canvas&quot;);d(p,{width:l,height:c});const y=p.getContext(&quot;2d&quot;);let g=y.createImageData(l,c);const w=new b(o);&quot;objectBoundingBox&quot;===o.getAttribute(&quot;gradientUnits&quot;)&amp;&amp;w.scale(new x(l,c));const m=o.getAttribute(&quot;gradientTransform&quot;);null!=m&amp;&amp;w.transform(h(m)),&quot;userSpaceOnUse&quot;===o.getAttribute(&quot;gradientUnits&quot;)&amp;&amp;w.transform(new x(-u,-f)),w.paintMesh(g.data,p.width),y.putImageData(g,0,0);const M=document.createElementNS(t,&quot;image&quot;);d(M,{width:l,height:c,x:0,y:0});let S=p.toDataURL();M.setAttributeNS(e,&quot;xlink:href&quot;,S);const k=&quot;pattern_clip&quot;+n,A=document.createElementNS(t,&quot;pattern&quot;);d(A,{id:k,patternUnits:&quot;userSpaceOnUse&quot;,width:l,height:c,x:u,y:f}),A.appendChild(M),o.parentNode.appendChild(A),r.style.stroke=&quot;url(#&quot;+k+&quot;)&quot;,g=null,p=null,S=null}}})}();
</script>
</svg>
